# xmcd
#
# Track frame offsets:
#	165
#	17609
#	31905
#	51155
#	70497
#	84256
#	100233
#	114956
#	131244
#	144695
#	160680
#	177118
#	187720
#	199546
#
# Disc length: 2856 seconds
#
# Revision: 1
# Processed by: cddbd v1.5PL3 Copyright (c) Steve Scherf et al.
# Submitted via: audiograbber 1.83.01
#
DISCID=b00b260e
DTITLE=Cezar e Paulinho - Vol. 13
DYEAR=2002
DGENRE=Country
TTITLE0=Mais você do que eu
TTITLE1=Cawboy maluco
TTITLE2=Forro bailao
TTITLE3=Tem alguem que te quer
TTITLE4=Roceiro de Deus
TTITLE5=Feito navalha
TTITLE6=O milagre da foto
TTITLE7=Curto e grosso
TTITLE8=Homem de rua
TTITLE9=Essa menina e um tchan
TTITLE10=Velho aconchego
TTITLE11=Cachoeira de alegria
TTITLE12=Pra baixo do umbigo
TTITLE13=Violeiro divertido
EXTD=
EXTT0=
EXTT1=
EXTT2=
EXTT3=
EXTT4=
EXTT5=
EXTT6=
EXTT7=
EXTT8=
EXTT9=
EXTT10=
EXTT11=
EXTT12=
EXTT13=
PLAYORDER=
